<?xml version="1.0" encoding="UTF-8"?>
<svg width="22px" height="20px" viewBox="0 0 22 20" version="1.1" xmlns="http://www.w3.org/2000/svg" xmlns:xlink="http://www.w3.org/1999/xlink">
    <!-- Generator: Sketch 52.4 (67378) - http://www.bohemiancoding.com/sketch -->
    <title>Group 2</title>
    <desc>Created with Sketch.</desc>
    <g id="Symbols" stroke="none" stroke-width="1" fill="none" fill-rule="evenodd">
        <g id="4-Modules/Toolbar/Desktop" transform="translate(-1179.000000, -9.000000)" fill="#2DBECD">
            <g id="View-Toggle" transform="translate(1170.000000, 0.000000)">
                <g id="Group-2" transform="translate(9.000000, 9.000000)">
                    <path d="M9.73906862,11.5141638 L9.73906862,1 C9.73906862,0.44771525 10.1867839,1.01453063e-16 10.7390686,0 L11.1836497,0 C11.7359344,-1.01453063e-16 12.1836497,0.44771525 12.1836497,1 L12.1836497,11.5953592 L13.8978959,9.79430116 C14.27866,9.3942547 14.911632,9.37862322 15.3116785,9.75938728 C15.323602,9.7707361 15.3352435,9.78237762 15.3465924,9.79430116 L15.7577335,10.226263 C16.1252692,10.6124113 16.1252692,11.2189834 15.7577335,11.6051317 L12.0487257,15.5019686 C11.9684639,15.639991 11.8561169,15.7570506 11.7218998,15.8429326 C11.5204635,16.0316452 11.2588123,16.1217732 10.9998472,16.1117632 C10.7920355,16.1197946 10.5819008,16.0633957 10.4019821,15.9417631 C10.1225404,15.8417309 9.90059692,15.6208568 9.79911795,15.3421069 L6.24226652,11.6051317 C5.8747308,11.2189834 5.8747308,10.6124113 6.24226652,10.226263 L6.65340765,9.79430116 C7.0341717,9.3942547 7.6671437,9.37862322 8.06719017,9.75938728 C8.07911372,9.7707361 8.09075523,9.78237762 8.10210406,9.79430116 L9.73906862,11.5141638 Z" id="Combined-Shape"></path>
                    <path d="M2.44444444,17.8 L19.5555556,17.8 L19.5555556,11.2 L18.1111111,11.2 C17.5588264,11.2 17.1111111,10.7522847 17.1111111,10.2 L17.1111111,10 C17.1111111,9.44771525 17.5588264,9 18.1111111,9 L21,9 C21.2761424,9 21.5261424,9.11192881 21.7071068,9.29289322 C21.8880712,9.47385763 22,9.72385763 22,10 L22,18.8 L22,19 C22,19.5522847 21.5522847,20 21,20 L1,20 C0.44771525,20 1.28867715e-16,19.5522847 6.123234e-17,19 L7.34788079e-17,18.8 L1.05319625e-15,10.2 L-2.34632493e-14,10 C-2.35308847e-14,9.44771525 0.44771525,9 1,9 L3.88888889,9 C4.44117364,9 4.88888889,9.44771525 4.88888889,10 L4.88888889,10.2 C4.88888889,10.7522847 4.44117364,11.2 3.88888889,11.2 L2.44444444,11.2 L2.44444444,17.8 Z" id="Combined-Shape"></path>
                </g>
            </g>
        </g>
    </g>
</svg>