<?xml version="1.0" encoding="UTF-8"?>
<svg width="14px" height="16px" viewBox="0 0 14 16" version="1.1" xmlns="http://www.w3.org/2000/svg" xmlns:xlink="http://www.w3.org/1999/xlink">
    <!-- Generator: Sketch 52.4 (67378) - http://www.bohemiancoding.com/sketch -->
    <title>2 Elements/Icons/Filter/Filled/Cyan</title>
    <desc>Created with Sketch.</desc>
    <g id="Symbols" stroke="none" stroke-width="1" fill="none" fill-rule="evenodd">
        <g id="4-Modules/Toolbar/Desktop" transform="translate(-274.000000, -12.000000)" fill="#02BFCF" fill-rule="nonzero">
            <g id="2-Elements/Glyphs/Filter/Cyan" transform="translate(272.000000, 11.000000)">
                <path d="M9.90430595,10.3435509 C10.0962819,10.213936 10.2626311,10.0425837 10.3897672,9.8371627 L15.1222996,3.59614987 C15.2383562,3.4086305 15.3,3.19097076 15.3,2.96870226 C15.3,2.32324583 14.7911094,1.8 14.163361,1.8 L3.83678236,1.8 C3.62061179,1.8 3.40892354,1.86338266 3.22654875,1.98271317 C2.69694163,2.32924292 2.54082112,3.05160313 2.87784383,3.59614987 L7.61037623,9.8371627 C7.73751233,10.0425837 7.90386153,10.213936 8.09583744,10.3435509 L8.09583744,14.4469466 C8.09583744,15.4151313 8.85917334,16.2 9.8007959,16.2 L9.90430595,16.2 L9.90430595,10.3435509 Z" id="Combined-Shape"></path>
            </g>
        </g>
    </g>
</svg>