<?xml version="1.0" encoding="UTF-8"?>
<svg width="18px" height="18px" viewBox="0 0 18 18" version="1.1" xmlns="http://www.w3.org/2000/svg" xmlns:xlink="http://www.w3.org/1999/xlink">
    <!-- Generator: Sketch 52.4 (67378) - http://www.bohemiancoding.com/sketch -->
    <title>noun_Search_1063941</title>
    <desc>Created with Sketch.</desc>
    <g id="Symbols" stroke="none" stroke-width="1" fill="none" fill-rule="evenodd">
        <g id="4-Modules/Toolbar/Desktop" transform="translate(-16.000000, -11.000000)" fill="#2DBECD" fill-rule="nonzero">
            <g id="noun_Search_1063941" transform="translate(16.000000, 11.000000)">
                <g id="Group" transform="translate(0.000000, 0.136676)">
                    <path d="M7.24325751,0.07761 C3.25854066,0.07761 -8.23170732e-06,3.25853143 -8.23170732e-06,7.14841714 C-8.23170732e-06,11.0382857 3.25854044,14.2192286 7.24325751,14.2192286 C8.76190873,14.2192286 10.1706504,13.7543357 11.3381697,12.9670929 L15.7486087,17.2725214 C16.2628819,17.7745286 17.1000138,17.77455 17.6142868,17.2725214 C18.1285821,16.7704714 18.1285821,15.96 17.6142868,15.45795 L13.203848,11.1525214 C14.010687,10.01265 14.4865236,8.63132143 14.4865236,7.14841714 C14.4865236,3.25853143 11.2279748,0.07761 7.24325751,0.07761 Z M7.24325751,2.64881357 C9.8044819,2.64881357 11.8526187,4.64815929 11.8526187,7.14841714 C11.8526187,9.64864286 9.80448212,11.6480143 7.24325773,11.6480143 C4.68203334,11.6480143 2.63389676,9.64864286 2.63389676,7.14841714 C2.63389676,4.64815929 4.68203334,2.64881357 7.24325773,2.64881357 L7.24325751,2.64881357 Z" id="Shape"></path>
                </g>
            </g>
        </g>
    </g>
</svg>